<svg width="53" height="50" viewBox="0 0 53 50" fill="none" xmlns="http://www.w3.org/2000/svg">
<path d="M42.3526 20.3273C42.5378 20.3209 42.7225 20.3519 42.8956 20.4184C43.0687 20.4849 43.2266 20.5856 43.3599 20.7144C43.4932 20.8432 43.5993 20.9976 43.6717 21.1682C43.7441 21.3389 43.7814 21.5224 43.7814 21.7078C43.7814 21.8932 43.7441 22.0767 43.6717 22.2474C43.5993 22.418 43.4932 22.5724 43.3599 22.7012C43.2266 22.83 43.0687 22.9307 42.8956 22.9972C42.7225 23.0637 42.5378 23.0947 42.3526 23.0883H38.5155V25.549H42.3526C42.539 25.5399 42.7253 25.5688 42.9002 25.6338C43.0751 25.6989 43.235 25.7988 43.3701 25.9275C43.5053 26.0562 43.6129 26.211 43.6864 26.3825C43.7599 26.5541 43.7978 26.7388 43.7978 26.9254C43.7978 27.112 43.7599 27.2967 43.6864 27.4682C43.6129 27.6398 43.5053 27.7946 43.3701 27.9233C43.235 28.052 43.0751 28.1519 42.9002 28.2169C42.7253 28.282 42.539 28.3109 42.3526 28.3018H37.1407C36.7764 28.3005 36.4274 28.1549 36.1701 27.897C35.9128 27.6391 35.7681 27.2897 35.7676 26.9254V16.4919C35.7676 15.7323 36.3828 15.1089 37.1407 15.1089H42.3624C42.7166 15.1272 43.0503 15.2811 43.2941 15.5387C43.538 15.7963 43.6735 16.1378 43.6724 16.4925C43.6714 16.8472 43.5339 17.1879 43.2885 17.444C43.0431 17.7001 42.7085 17.852 42.3542 17.8682H38.5171V20.329L42.3526 20.3273ZM33.9303 26.9237C33.9273 27.2891 33.7801 27.6385 33.5208 27.896C33.2615 28.1534 32.9111 28.2981 32.5457 28.2985C32.3294 28.3006 32.1155 28.2523 31.921 28.1575C31.7266 28.0627 31.5568 27.9239 31.4252 27.7522L26.0854 20.4897V26.9221C26.0854 27.2871 25.9404 27.6372 25.6823 27.8953C25.4242 28.1535 25.0741 28.2985 24.7091 28.2985C24.344 28.2985 23.994 28.1535 23.7358 27.8953C23.4777 27.6372 23.3327 27.2871 23.3327 26.9221V16.4886C23.3327 15.8996 23.7182 15.3714 24.2727 15.1827C24.4096 15.1344 24.554 15.1105 24.6992 15.1122C25.1258 15.1122 25.5195 15.3435 25.7836 15.6683L31.166 22.9472V16.4886C31.166 15.729 31.7812 15.1056 32.5424 15.1056C33.3036 15.1056 33.927 15.729 33.927 16.4886L33.9303 26.9237ZM21.3707 26.9237C21.3689 27.2897 21.2222 27.64 20.9627 27.898C20.7032 28.1559 20.352 28.3006 19.9861 28.3001C19.6229 28.2971 19.2756 28.1508 19.0197 27.893C18.7638 27.6353 18.62 27.2869 18.6196 26.9237V16.4902C18.6196 15.7307 19.2348 15.1073 19.9959 15.1073C20.7555 15.1073 21.3723 15.7307 21.3723 16.4902L21.3707 26.9237ZM15.9784 28.3001H10.7567C10.3912 28.2993 10.0407 28.1542 9.78149 27.8965C9.52225 27.6388 9.37515 27.2893 9.37213 26.9237V16.4902C9.37213 15.7307 9.99551 15.1073 10.7567 15.1073C11.5179 15.1073 12.1331 15.7307 12.1331 16.4902V25.5474H15.9784C16.3434 25.5474 16.6935 25.6924 16.9516 25.9505C17.2097 26.2086 17.3548 26.5587 17.3548 26.9237C17.3548 27.2888 17.2097 27.6389 16.9516 27.897C16.6935 28.1551 16.3434 28.3001 15.9784 28.3001ZM52.4957 21.3083C52.4957 9.56078 40.7121 0 26.2479 0C11.7836 0 0 9.56078 0 21.3083C0 31.8354 9.33932 40.653 21.9498 42.328C22.8045 42.5068 23.9659 42.8923 24.2661 43.619C24.5303 44.2752 24.4368 45.2923 24.3514 45.9863L23.9922 48.2157C23.8888 48.8735 23.4623 50.806 26.2823 49.6265C29.1105 48.447 41.4142 40.7071 46.9246 34.365C50.6928 30.2392 52.4957 26.0001 52.4957 21.3083Z" fill="white"/>
</svg>
