<svg width="50" height="50" viewBox="0 0 50 50" fill="none" xmlns="http://www.w3.org/2000/svg">
<path d="M24.9896 0C11.2104 0 0 11.2125 0 24.9917C0 38.7833 11.2104 50 24.9896 50C38.7812 50 50 38.7812 50 24.9917C50 11.2125 38.7812 0 24.9896 0ZM12.3083 34.175C15.1696 33.2985 18.145 32.8506 21.1375 32.8458C26.1667 32.8458 31.1312 34.1208 35.4958 36.5333C35.7562 36.675 35.9917 37.1417 36.1 37.725C36.2042 38.3083 36.1625 38.9062 35.9917 39.2167C35.9112 39.3643 35.8021 39.4945 35.6709 39.5997C35.5397 39.7049 35.389 39.7831 35.2273 39.8296C35.0657 39.8761 34.8965 39.8901 34.7294 39.8707C34.5624 39.8513 34.4008 39.7989 34.2542 39.7167C31.0483 37.958 27.5219 36.8611 23.8842 36.4911C20.2464 36.121 16.5714 36.4854 13.0771 37.5625C12.9167 37.6144 12.7475 37.6338 12.5795 37.6197C12.4115 37.6055 12.248 37.5581 12.0986 37.4802C11.9491 37.4022 11.8166 37.2953 11.7088 37.1657C11.601 37.036 11.5201 36.8862 11.4708 36.725C11.2479 35.9958 11.7083 34.3708 12.3083 34.175ZM11.2188 24.9667C14.4511 24.0885 17.7859 23.6436 21.1354 23.6437C27.1646 23.6437 33.15 25.1021 38.4479 27.8646C38.8208 28.0521 39.0938 28.3729 39.2188 28.7646C39.2819 28.9624 39.3049 29.1708 39.2863 29.3776C39.2677 29.5844 39.2079 29.7854 39.1104 29.9688C38.6375 30.8937 38.0833 31.5167 37.7354 31.5167C37.4816 31.5155 37.2317 31.4541 37.0062 31.3375C32.1088 28.7806 26.6622 27.4549 21.1375 27.475C18.0644 27.4688 15.0047 27.8788 12.0417 28.6937C11.844 28.7478 11.6376 28.7624 11.4343 28.7366C11.231 28.7109 11.0348 28.6454 10.8568 28.5438C10.6788 28.4423 10.5226 28.3066 10.397 28.1447C10.2715 27.9828 10.179 27.7977 10.125 27.6C9.89167 26.7208 10.4271 25.1833 11.2188 24.9667ZM10.9375 18.9542C10.703 19.0143 10.4589 19.0275 10.2193 18.9928C9.97972 18.9582 9.74935 18.8764 9.54152 18.7523C9.33369 18.6281 9.15251 18.464 9.00843 18.2695C8.86435 18.0749 8.76023 17.8538 8.70208 17.6187C8.44583 16.5812 9.09375 15.3771 10.0354 15.1396C13.6677 14.2449 17.3946 13.791 21.1354 13.7875C28.3229 13.7875 35.2104 15.4042 41.6021 18.5938C42.0412 18.8121 42.3757 19.1959 42.532 19.6608C42.6882 20.1257 42.6535 20.6336 42.4354 21.0729C42.1375 21.6729 41.4917 22.3188 40.7792 22.3188C40.4998 22.3177 40.2239 22.2559 39.9708 22.1375C34.1262 19.2055 27.6742 17.6883 21.1354 17.7083C17.7292 17.7083 14.2979 18.1271 10.9375 18.9542Z" fill="white"/>
</svg>
