<svg width="44" height="50" viewBox="0 0 44 50" fill="none" xmlns="http://www.w3.org/2000/svg">
<path d="M40.9892 11.7284C38.4963 11.1802 36.2413 9.85644 34.5475 7.94703C32.8537 6.03762 31.8084 3.64073 31.5614 1.10032V0H22.9339V34.1849C22.9357 35.7017 22.4601 37.1807 21.5747 38.4122C20.6892 39.6438 19.4386 40.5655 18.0002 41.0468C16.5617 41.5281 15.0083 41.5447 13.5599 41.0941C12.1116 40.6435 10.8417 39.7486 9.93019 38.5361C9.11357 37.4629 8.61353 36.1827 8.4866 34.8401C8.35966 33.4975 8.61091 32.1462 9.21193 30.9389C9.81294 29.7317 10.7397 28.7167 11.8875 28.0087C13.0353 27.3008 14.3583 26.9281 15.7069 26.9328C16.4527 26.9285 17.1948 27.0381 17.9075 27.2579V18.5054C17.0781 18.4026 16.2423 18.3608 15.4068 18.3803C12.3292 18.4626 9.34232 19.4405 6.812 21.1943C4.28168 22.9481 2.31771 25.4018 1.16059 28.2548C0.00347283 31.1078 -0.296574 34.2363 0.297194 37.2572C0.890962 40.2781 2.35277 43.0603 4.50362 45.2631C6.70797 47.5043 9.5288 49.0395 12.6077 49.6739C15.6866 50.3082 18.8846 50.0129 21.7953 48.8256C24.706 47.6383 27.198 45.6125 28.9548 43.0056C30.7115 40.3987 31.6536 37.3284 31.6615 34.1849V16.6798C35.1411 19.1654 39.3137 20.495 43.5899 20.4809V11.9785C42.7499 11.9819 41.9119 11.8981 41.0892 11.7284H40.9892Z" fill="white"/>
</svg>
