<svg width="62" height="50" viewBox="0 0 62 50" fill="none" xmlns="http://www.w3.org/2000/svg">
<path d="M61.5055 5.93091C59.2436 6.93316 56.8139 7.61035 54.2595 7.91645C56.8951 6.33938 58.867 3.85725 59.8071 0.933223C57.3308 2.40406 54.6207 3.43937 51.7945 3.99414C49.894 1.9649 47.3766 0.619888 44.6334 0.167923C41.8901 -0.284042 39.0743 0.182327 36.6233 1.49462C34.1722 2.80692 32.223 4.89172 31.0782 7.42535C29.9334 9.95899 29.6571 12.7997 30.2922 15.5064C25.2747 15.2545 20.3663 13.9504 15.8854 11.6787C11.4045 9.40698 7.45141 6.21848 4.28257 2.32012C3.19906 4.18917 2.57605 6.35619 2.57605 8.66407C2.57484 10.7417 3.08647 12.7875 4.06554 14.6199C5.04462 16.4524 6.46087 18.0149 8.18863 19.1687C6.18488 19.1049 4.22535 18.5635 2.47311 17.5895V17.752C2.47291 20.6659 3.48086 23.4902 5.32595 25.7456C7.17103 28.001 9.7396 29.5485 12.5958 30.1257C10.737 30.6288 8.78818 30.7029 6.89654 30.3424C7.70239 32.8497 9.27213 35.0422 11.386 36.613C13.4998 38.1838 16.052 39.0543 18.6851 39.1026C14.2152 42.6116 8.69486 44.5149 3.01216 44.5066C2.00553 44.5069 0.999745 44.4481 0 44.3305C5.76827 48.0393 12.483 50.0076 19.3407 50C42.5549 50 55.2455 30.7731 55.2455 14.0979C55.2455 13.5561 55.2319 13.0089 55.2076 12.4672C57.676 10.682 59.8068 8.47146 61.5 5.93904L61.5055 5.93091Z" fill="white"/>
</svg>
